<svg class="svg-icon" style="width: 1em; height: 1em;vertical-align: middle;fill: currentColor;overflow: hidden;" viewBox="0 0 1024 1024" version="1.1" xmlns="http://www.w3.org/2000/svg"><path d="M904.533333 136.533333h-580.266666C259.413333 136.533333 204.8 191.146667 204.8 256V409.6h17.066667c139.946667 0 256 116.053333 256 256v17.066667h426.666666c64.853333 0 119.466667-54.613333 119.466667-119.466667v-307.2C1024 191.146667 969.386667 136.533333 904.533333 136.533333z m-136.533333 102.4h34.133333c10.24 0 17.066667 6.826667 17.066667 17.066667s-6.826667 17.066667-17.066667 17.066667h-34.133333c-10.24 0-17.066667-6.826667-17.066667-17.066667s6.826667-17.066667 17.066667-17.066667z m-273.066667 0h34.133334c10.24 0 17.066667 6.826667 17.066666 17.066667s-6.826667 17.066667-17.066666 17.066667h-34.133334c-10.24 0-17.066667-6.826667-17.066666-17.066667s6.826667-17.066667 17.066666-17.066667z m-153.6 17.066667c0-10.24 6.826667-17.066667 17.066667-17.066667h34.133333c10.24 0 17.066667 6.826667 17.066667 17.066667s-6.826667 17.066667-17.066667 17.066667h-34.133333c-10.24 0-17.066667-6.826667-17.066667-17.066667z m221.866667 290.133333h-34.133333c-10.24 0-17.066667-6.826667-17.066667-17.066666s6.826667-17.066667 17.066667-17.066667h34.133333c10.24 0 17.066667 6.826667 17.066667 17.066667s-6.826667 17.066667-17.066667 17.066666z m0-136.533333h-170.666667c-10.24 0-17.066667-6.826667-17.066666-17.066667s6.826667-17.066667 17.066666-17.066666h170.666667c10.24 0 17.066667 6.826667 17.066667 17.066666s-6.826667 17.066667-17.066667 17.066667zM614.4 256c0-10.24 6.826667-17.066667 17.066667-17.066667h34.133333c10.24 0 17.066667 6.826667 17.066667 17.066667s-6.826667 17.066667-17.066667 17.066667h-34.133333c-10.24 0-17.066667-6.826667-17.066667-17.066667z m187.733333 290.133333c-13.653333 0-23.893333-3.413333-34.133333-6.826666-10.24 3.413333-20.48 6.826667-34.133333 6.826666-47.786667 0-85.333333-37.546667-85.333334-85.333333s37.546667-85.333333 85.333334-85.333333c10.24 0 23.893333 3.413333 34.133333 6.826666 10.24-3.413333 23.893333-6.826667 34.133333-6.826666 47.786667 0 85.333333 37.546667 85.333334 85.333333S849.92 546.133333 802.133333 546.133333z" fill="" /><path d="M802.133333 409.6c-10.24 0-17.066667 3.413333-23.893333 6.826667-6.826667 3.413333-13.653333 10.24-17.066667 17.066666v3.413334c0 3.413333-3.413333 6.826667-3.413333 10.24v34.133333c0 3.413333 3.413333 6.826667 3.413333 10.24v3.413333c3.413333 6.826667 10.24 13.653333 17.066667 17.066667 6.826667 3.413333 17.066667 6.826667 23.893333 6.826667 27.306667 0 51.2-23.893333 51.2-51.2s-23.893333-58.026667-51.2-58.026667zM720.213333 440.32c0-3.413333 0-6.826667 3.413334-6.826667 0-3.413333 3.413333-6.826667 3.413333-6.826666 0-3.413333 3.413333-3.413333 3.413333-3.413334 0-3.413333 3.413333-6.826667 6.826667-6.826666-27.306667 0-51.2 23.893333-51.2 51.2s23.893333 51.2 51.2 51.2c-3.413333-3.413333-3.413333-6.826667-6.826667-6.826667l-3.413333-3.413333c0-3.413333-3.413333-3.413333-3.413333-6.826667s0-3.413333-3.413334-6.826667v-6.826666-13.653334-17.066666-17.066667zM221.866667 443.733333C98.986667 443.733333 0 542.72 0 665.6S98.986667 887.466667 221.866667 887.466667s221.866667-98.986667 221.866666-221.866667S344.746667 443.733333 221.866667 443.733333z m68.266666 238.933334H238.933333v51.2c0 10.24-6.826667 17.066667-17.066666 17.066666s-17.066667-6.826667-17.066667-17.066666V682.666667H153.6c-10.24 0-17.066667-6.826667-17.066667-17.066667s6.826667-17.066667 17.066667-17.066667H204.8v-51.2c0-10.24 6.826667-17.066667 17.066667-17.066666s17.066667 6.826667 17.066666 17.066666V648.533333h51.2c10.24 0 17.066667 6.826667 17.066667 17.066667s-6.826667 17.066667-17.066667 17.066667z" fill="" /></svg>